<?xml version="1.0" encoding="utf-8"?>
<!-- Generator: Adobe Illustrator 22.1.0, SVG Export Plug-In . SVG Version: 6.00 Build 0)  -->
<svg version="1.2" baseProfile="tiny"
	 id="svg455" inkscape:version="1.2.1 (9c6d41e410, 2022-07-14)" sodipodi:docname="darklogo_2021.svg" xmlns:inkscape="http://www.inkscape.org/namespaces/inkscape" xmlns:sodipodi="http://sodipodi.sourceforge.net/DTD/sodipodi-0.dtd" xmlns:svg="http://www.w3.org/2000/svg"
	 xmlns="http://www.w3.org/2000/svg" xmlns:xlink="http://www.w3.org/1999/xlink" x="0px" y="0px" viewBox="0 0 268.5 232.5"
	 xml:space="preserve">
<sodipodi:namedview  bordercolor="#ffffff" borderopacity="1" id="namedview457" inkscape:current-layer="layer1" inkscape:cx="-45.186174" inkscape:cy="156.9625" inkscape:deskcolor="#505050" inkscape:document-units="mm" inkscape:pagecheckerboard="1" inkscape:pageopacity="0" inkscape:showpageshadow="0" inkscape:window-height="1017" inkscape:window-maximized="1" inkscape:window-width="1920" inkscape:window-x="-8" inkscape:window-y="-8" inkscape:zoom="0.2102413" pagecolor="#505050" showgrid="false">
	</sodipodi:namedview>
<g id="layer1" transform="translate(-57.639584,-107.4846)" inkscape:groupmode="layer" inkscape:label="Layer 1">
	<g id="g10" transform="matrix(0.35277776,0,0,-0.35277776,-80.672384,801.75884)">
		<g id="g1578" transform="matrix(0.31128948,0,0,0.31128948,-78.822484,1407.4841)">
			<g id="g1564" transform="matrix(0.80392092,0,0,0.8039209,1997.881,1800.6952)">
				<path id="path1562" fill="#26081C" d="M1107.2,0H727.1L-603.5-2304.7l190.1-329.2h2661.2l190.1,329.2L1107.2,0z"/>
			</g>
			<g id="g1568" transform="matrix(0.80392092,0,0,0.8039209,1782.2449,1240.4577)">
				<path id="path1566" fill="#D1D1D1" d="M615.1-1278.5l190.1-329.2h760.3l190.1,329.2H615.1z"/>
			</g>
			<g id="g1572" transform="matrix(0.80392092,0,0,0.8039209,1728.335,1333.8311)">
				<path id="path1570" fill="#D1D1D1" d="M492.1-1065.4L302-1394.7l190.1-329.2l380.2,658.5H492.1z"/>
			</g>
			<g id="g1576" transform="matrix(0.80392092,0,0,0.8039209,2105.699,1427.2033)">
				<path id="path1574" fill="#D1D1D1" d="M1353.3-852.4H973.1H593L783-523.1l190.1-329.2l190.1,329.2L973.1-193.9H593L212.8-852.4
					l190.1-329.2h760.3l380.2-658.5l190.1,329.2L1353.3-852.4z"/>
			</g>
		</g>
	</g>
</g>
</svg>
