<svg id="filled_outline" height="512" viewBox="0 0 512 512" width="512" xmlns="http://www.w3.org/2000/svg" data-name="filled outline"><path d="m488 368-56 48h-368l-40-48v-216h464z" fill="#548aff"/><path d="m72 216a48 48 0 0 1 -48-48v-72l464-24v96a48 48 0 0 1 -48 48z" fill="#e8f2ff"/><path d="m248 144h-176a48 48 0 0 1 -48-47.99995v-.00005a48 48 0 0 1 48-48h64l16 16 16-16h80z" fill="#d1e4ff"/><path d="m248 24h192a48 48 0 0 1 48 48v.0001a48 48 0 0 1 -48 48h-192z" fill="#e0edff"/><path d="m152 56v32a32 32 0 0 0 32 32 32 32 0 0 0 32-32v-32z" fill="#e0edff"/><path d="m88 56v32a32 32 0 0 0 32 32 32 32 0 0 0 32-32v-32z" fill="#e0edff"/><path d="m320 24h72v48h-72z" fill="#c8dbf7"/><path d="m440 392a48 48 0 0 0 48-48v32a48 48 0 0 1 -48 48h-368a48 48 0 0 1 -48-48v-32a48 48 0 0 0 48 48z" fill="#e8f2ff"/><path d="m376 152h56v32h-56z" fill="#91c0ff"/><path d="m80 280h72v48h-72z" fill="#4976f2"/><path d="m136 368v-64.00012a119.99988 119.99988 0 0 1 119.99988-119.99988h.00024a119.99988 119.99988 0 0 1 119.99988 119.99988v64.00012z" fill="#d1e4ff"/><g fill="#e8f2ff"><circle cx="120" cy="56" r="32"/><circle cx="184" cy="56" r="32"/><circle cx="256" cy="368" r="120"/></g><circle cx="256" cy="368" fill="#98eafa" r="88"/><circle cx="80" cy="304" fill="#639aff" r="24"/><path d="m440 16h-192a8.00008 8.00008 0 0 0 -8 8v16h-19.3501a39.97261 39.97261 0 0 0 -68.6499-7.97205 39.97261 39.97261 0 0 0 -68.6499 7.97205h-11.3501a56.06322 56.06322 0 0 0 -56 56v280a56.06322 56.06322 0 0 0 56 56h73.18286a127.94093 127.94093 0 0 0 221.63428 0h73.18286a56.06322 56.06322 0 0 0 56-56v-304a56.06322 56.06322 0 0 0 -56-56zm-112 16h56v32h-56zm-232 55.978a39.91239 39.91239 0 0 0 48 0v.022a24 24 0 0 1 -48 0zm64 0a39.91239 39.91239 0 0 0 48 0v.022a24 24 0 0 1 -48 0zm24-55.978a24 24 0 1 1 -24 24 24.0275 24.0275 0 0 1 24-24zm-64 0a24 24 0 1 1 -24 24 24.0275 24.0275 0 0 1 24-24zm-48 24h8v32a39.986 39.986 0 0 0 72 23.972 39.986 39.986 0 0 0 72-23.972v-32h16v80h-168a40 40 0 0 1 0-80zm-40 151.13849a55.82355 55.82355 0 0 0 40 16.86151h84.15918a127.68894 127.68894 0 0 0 -24.10938 48h-52.0498a32 32 0 0 0 0 64h48v32a128.72176 128.72176 0 0 0 .99805 16h-56.99805a40.04552 40.04552 0 0 1 -40-40zm336 98.95532a127.94233 127.94233 0 0 0 -224 0v-2.09381a112 112 0 0 1 224 0zm-272-2.09381a16 16 0 1 1 -16-16 16.01833 16.01833 0 0 1 16 16zm11.69482-16h21.30323a128.72176 128.72176 0 0 0 -.99805 16v16h-20.30518a31.88422 31.88422 0 0 0 0-32zm-35.69482 128a40.06652 40.06652 0 0 1 -39.20654-32.065 55.80692 55.80692 0 0 0 39.20654 16.065h60.0498a126.90978 126.90978 0 0 0 5.29834 16zm184 64a112 112 0 1 1 112-112 112.12706 112.12706 0 0 1 -112 112zm184-64h-65.34814a126.90978 126.90978 0 0 0 5.29834-16h60.0498a55.80692 55.80692 0 0 0 39.20654-16.065 40.06652 40.06652 0 0 1 -39.20654 32.065zm40-72a40.04552 40.04552 0 0 1 -40 40h-56.998a128.72176 128.72176 0 0 0 .998-16v-64a127.38013 127.38013 0 0 0 -28.15918-80h84.15918a55.82355 55.82355 0 0 0 40-16.86151zm0-176a40.04552 40.04552 0 0 1 -40 40h-99.436a127.73536 127.73536 0 0 0 -169.128 0h-99.436a40.04552 40.04552 0 0 1 -40-40v-32.86151a55.82355 55.82355 0 0 0 40 16.86151h176a8.00008 8.00008 0 0 0 8-8v-16h184a55.82355 55.82355 0 0 0 40-16.86151zm-40-56h-184v-80h56v40a8.00008 8.00008 0 0 0 8 8h72a8.00008 8.00008 0 0 0 8-8v-40h40a40 40 0 0 1 0 80z"/><path d="m80 168h24v16h-24z"/><path d="m432 144h-56a8.00008 8.00008 0 0 0 -8 8v32a8.00008 8.00008 0 0 0 8 8h56a8.00008 8.00008 0 0 0 8-8v-32a8.00008 8.00008 0 0 0 -8-8zm-8 32h-40v-16h40z"/><path d="m256 272a96 96 0 1 0 96 96 96.10874 96.10874 0 0 0 -96-96zm0 176a80 80 0 1 1 80-80 80.09041 80.09041 0 0 1 -80 80z"/><path d="m328 152h24v16h-24z"/></svg>