<svg id="filled_outline" height="512" viewBox="0 0 512 512" width="512" xmlns="http://www.w3.org/2000/svg" data-name="filled outline"><rect fill="#e8f2ff" height="464" rx="16" width="352" x="80" y="24"/><path d="m120 64h272v288h-272z" fill="#548aff"/><path d="m216 352 135.02945-135.02945a57.94108 57.94108 0 0 1 40.97055-16.97055v152z" fill="#08d175"/><circle cx="256" cy="152" fill="#ffc431" r="24"/><path d="m320 352-145.37261-145.37261a77.25476 77.25476 0 0 0 -54.62739-22.62739v168z" fill="#3cde8d"/><path d="m72 40v432a24.0275 24.0275 0 0 0 24 24h320a24.0275 24.0275 0 0 0 24-24v-432a24.0275 24.0275 0 0 0 -24-24h-320a24.0275 24.0275 0 0 0 -24 24zm352 0v432a8.00917 8.00917 0 0 1 -8 8h-320a8.00917 8.00917 0 0 1 -8-8v-432a8.00917 8.00917 0 0 1 8-8h320a8.00917 8.00917 0 0 1 8 8z"/><path d="m120 360h272a8.00008 8.00008 0 0 0 8-8v-288a8.00008 8.00008 0 0 0 -8-8h-272a8.00008 8.00008 0 0 0 -8 8v288a8.00008 8.00008 0 0 0 8 8zm8-167.52734a68.71138 68.71138 0 0 1 40.96973 19.81152l131.71627 131.71582h-172.686zm195.314 151.52734-44-44 77.37256-77.37256a49.56292 49.56292 0 0 1 27.31344-13.98285v135.35541zm60.686-272v120.49707a65.43005 65.43005 0 0 0 -38.62793 18.81693l-77.37207 77.37216-87.71582-87.71546a84.60124 84.60124 0 0 0 -52.28418-24.59253v-104.37817z"/><path d="m256 184a32 32 0 1 0 -32-32 32.03635 32.03635 0 0 0 32 32zm0-48a16 16 0 1 1 -16 16 16.01833 16.01833 0 0 1 16-16z"/><path d="m248 88h16v16h-16z"/><path d="m208.402 104.402h16v16h-16z" transform="matrix(.707 -.707 .707 .707 -16.099 185.936)"/><path d="m192 144h16v16h-16z"/><path d="m208.402 183.598h16v16h-16z" transform="matrix(.707 -.707 .707 .707 -72.097 209.149)"/><path d="m248 200h16v16h-16z"/><path d="m287.598 183.598h16v16h-16z" transform="matrix(.707 -.707 .707 .707 -48.903 265.13)"/><path d="m304 144h16v16h-16z"/><path d="m287.598 104.402h16v16h-16z" transform="matrix(.707 -.707 .707 .707 7.104 241.954)"/><path d="m288 384h24v16h-24z"/><path d="m328 384h64v16h-64z"/><path d="m360 416h32v16h-32z"/></svg>