<svg id="filled_outline" height="512" viewBox="0 0 512 512" width="512" xmlns="http://www.w3.org/2000/svg" data-name="filled outline"><path d="m176 408v80h-64v-32l-16-16v-32z" fill="#62798c"/><path d="m248 396.8 48-28.8h40v40h-88z" fill="#62798c"/><rect fill="#548aff" height="112" rx="16" width="184" x="24" y="24"/><path d="m24 200v112l32 32h136v-144z" fill="#8098ab"/><path d="m88 344h80v32h-80z" fill="#556c80"/><path d="m192 248h32v72h-32z" fill="#556c80"/><path d="m136 168h-40v-16l8-16h24l8 16z" fill="#62798c"/><path d="m96 168h40v32h-40z" fill="#556c80"/><path d="m280 408h-224v-32h168z" fill="#718799"/><circle cx="96" cy="424" fill="#8098ab" r="16"/><path d="m336 224-112 24v72l112 24z" fill="#718799"/><path d="m336 224h80v120h-80z" fill="#62798c"/><path d="m416 344 72 32v-184l-72 32z" fill="#718799"/><circle cx="336" cy="368" fill="#8098ab" r="40"/><path d="m48 280h16v24h-16z"/><circle cx="112" cy="256" r="8"/><circle cx="136" cy="256" r="8"/><circle cx="184" cy="80" r="8"/><path d="m492.35938 185.292a7.99848 7.99848 0 0 0 -7.6084-.60254l-70.44873 31.31054h-78.30225v.0061a8.02614 8.02614 0 0 0 -1.67627.17163l-111.17059 23.82227h-23.15314v-40a8.00008 8.00008 0 0 0 -8-8h-48v-40a7.99934 7.99934 0 0 0 -.84473-3.57812l-2.21093-4.42188h51.05566a24.0275 24.0275 0 0 0 24-24v-80a24.0275 24.0275 0 0 0 -24-24h-152a24.0275 24.0275 0 0 0 -24 24v80a24.0275 24.0275 0 0 0 24 24h51.05566l-2.21093 4.42188a7.99934 7.99934 0 0 0 -.84473 3.57812v40h-64a8.00008 8.00008 0 0 0 -8 8v112a8.00076 8.00076 0 0 0 2.34326 5.65723l32 32a8.00035 8.00035 0 0 0 5.65674 2.34277h24v16h-24a8.00008 8.00008 0 0 0 -8 8v32a8.00008 8.00008 0 0 0 8 8h17.37616a23.9905 23.9905 0 0 0 19.04156 31.73145l11.58228 11.58203v28.68652a8.00008 8.00008 0 0 0 8 8h64a8.00008 8.00008 0 0 0 8-8v-72h152a47.983 47.983 0 0 0 45.2478-64h33.05445l70.44875 31.31055a7.9999 7.9999 0 0 0 11.249-7.31055v-184a8.00048 8.00048 0 0 0 -3.64062-6.708zm-132.35938 94.708h-16v-16h16zm0 16v30.45752a47.652 47.652 0 0 0 -16-5.77832v-24.6792zm0-48h-16v-16h16zm-32 72.6792a47.77149 47.77149 0 0 0 -20.82068 8.96338l-75.17932-16.11035v-59.06446l96-20.57226zm-39.76941 42.65234-34.28052 20.56836-25.98083-14.84619a8.00423 8.00423 0 0 0 -3.96924-1.05371h-48v-16h16a8.00008 8.00008 0 0 0 8-8v-16h23.1532l71.6737 15.3584a47.65791 47.65791 0 0 0 -6.59631 19.97314zm-72.23059-107.33154v56h-16v-56zm-32 80h-88v-48h64a8.00008 8.00008 0 0 0 8-8v-48a8.00008 8.00008 0 0 0 -8-8h-64v-16h88zm-88-96h56v32h-56zm-64-120v-80a8.00917 8.00917 0 0 1 8-8h152a8.00917 8.00917 0 0 1 8 8v80a8.00917 8.00917 0 0 1 -8 8h-152a8.00917 8.00917 0 0 1 -8-8zm91.05566 24 4.94434 9.88867v6.11133h-24v-6.11133l4.94434-9.88867zm-19.05566 32h24v16h-24zm-72 132.68652v-100.68652h48v128h-20.68652zm64 43.31348h64v16h-64zm0 64a8 8 0 1 1 -8 8 8.00917 8.00917 0 0 1 8-8zm21.65674 34.34277-7.20026-7.20019a23.96264 23.96264 0 0 0 8.16736-27.14258h17.37616v64h-16v-24a8.00076 8.00076 0 0 0 -2.34326-5.65723zm50.34326 29.65723h-16v-64h16zm-104-80v-16h157.87549l28 16zm205.87939-6.99756 19.9358-11.96142a47.96474 47.96474 0 0 0 10.44604 18.95898h-18.136zm66.12061 6.99756a32 32 0 1 1 32-32 32.03635 32.03635 0 0 1 -32 32zm72-64h-32v-104h32zm72 27.68945-56-24.88867v-109.60178l56-24.88842z"/><circle cx="336" cy="368" r="8"/></svg>