<svg id="filled_outline" height="512" viewBox="0 0 512 512" width="512" xmlns="http://www.w3.org/2000/svg" data-name="filled outline"><path d="m88 256-64 64v80l96 88h32a24 24 0 0 0 24-24v-16l56-56z" fill="#8098ab"/><path d="m248 96 72-72h80l88 96v32a24 24 0 0 1 -24 24h-16l-56 56z" fill="#8098ab"/><g fill="#62798c"><circle cx="64" cy="344" r="16"/><path d="m88 416 16-16-16-16 24-24 16 16 16-16 24 24-16 16 16 16-24 24-16-16-16 16z"/><circle cx="368" cy="128" r="24"/></g><path d="m232 392 160-160-144-136-160 160z" fill="#718799"/><path d="m88 344a24 24 0 1 0 -24 24 24.02718 24.02718 0 0 0 24-24zm-24 8a8 8 0 1 1 8-8 8.00917 8.00917 0 0 1 -8 8z"/><path d="m82.34326 389.65723 10.34326 10.34277-10.34326 10.34277a8.00034 8.00034 0 0 0 0 11.31446l24 24a8.00182 8.00182 0 0 0 11.31348 0l10.34326-10.34375 10.34326 10.34375a8.00063 8.00063 0 0 0 11.31348 0l24-24a8.00034 8.00034 0 0 0 0-11.31446l-10.34326-10.34277 10.34326-10.34277a8.00034 8.00034 0 0 0 0-11.31446l-24-24a8.00182 8.00182 0 0 0 -11.31348 0l-10.34326 10.34375-10.34326-10.34375a8.00182 8.00182 0 0 0 -11.31348 0l-24 24a8.00034 8.00034 0 0 0 0 11.31446zm27.31348 4.68554-10.34326-10.34277 12.68652-12.68652 10.34326 10.34375a8.00182 8.00182 0 0 0 11.31348 0l10.34326-10.34375 12.68652 12.68652-10.34326 10.34277a8.00034 8.00034 0 0 0 0 11.31446l10.34326 10.34277-12.68652 12.68652-10.34326-10.34375a8.00063 8.00063 0 0 0 -11.31348 0l-10.34326 10.34375-12.68652-12.68652 10.34326-10.34277a8.00034 8.00034 0 0 0 0-11.31446z"/><circle cx="96" cy="304" r="8"/><circle cx="344" cy="56" r="8"/><circle cx="344" cy="80" r="8"/><circle cx="368" cy="56" r="8"/><circle cx="368" cy="80" r="8"/><circle cx="392" cy="184" r="8"/><circle cx="408" cy="168" r="8"/><path d="m368 96a32 32 0 1 0 32 32 32.03635 32.03635 0 0 0 -32-32zm0 48a16 16 0 1 1 16-16 16.01833 16.01833 0 0 1 -16 16z"/><circle cx="288" cy="96" r="8"/><path d="m405.89746 18.59375a8.00281 8.00281 0 0 0 -5.89746-2.59375h-80a8.00035 8.00035 0 0 0 -5.65674 2.34277l-72 72-160 160-64 64a8.00076 8.00076 0 0 0 -2.34326 5.65723v80a8.00044 8.00044 0 0 0 2.59424 5.89746l96 88a7.99983 7.99983 0 0 0 5.40576 2.10254h32a32.03635 32.03635 0 0 0 32-32v-12.68652l53.65674-53.65625 160-160 53.65674-53.65723h12.68652a32.03635 32.03635 0 0 0 32-32v-32a8.0025 8.0025 0 0 0 -2.10254-5.40625zm-174.05664 362.25146-132.36282-125.00927 148.68118-148.68115 132.36282 125.00927zm-61.49756 61.49756a8.00076 8.00076 0 0 0 -2.34326 5.65723v16a16.01833 16.01833 0 0 1 -16 16h-28.88818l-91.11182-83.51953v-73.167l56.15918-56.15917 132.36328 125.00976zm309.65674-290.34277a16.01833 16.01833 0 0 1 -16 16h-16a8.00035 8.00035 0 0 0 -5.65674 2.34277l-50.50244 50.50293-132.36328-125.00976 63.83594-63.83594h73.16752l83.519 91.1123z"/></svg>